<svg width="86" height="86" viewBox="0 0 86 86" fill="none" xmlns="http://www.w3.org/2000/svg">
<rect width="86" height="86" fill="#131111"/>
<path d="M6.73438 2.89062H4.09026L4.2383 5.53059C4.43598 9.05595 5.06979 12.0871 6.29407 14.4591L6.29789 14.4665L6.30176 14.4739C7.59362 16.9365 9.6232 18.7139 12.2513 19.7961L12.2673 19.8027L12.2835 19.8091C15.4929 21.0787 19.2275 21.6719 23.4219 21.6719C24.819 21.6719 26.3055 21.6361 27.8807 21.565C25.9209 23.2453 24.3616 24.9455 23.2442 26.674L23.2408 26.6794C20.9372 30.2627 19.8906 34.7609 19.8906 39.9844C19.8906 40.4675 19.8946 40.9785 19.9024 41.5172C19.0159 41.364 18.1558 41.2812 17.3281 41.2812C14.4172 41.2812 11.7741 42.0259 9.51706 43.6099L9.50852 43.6159L9.50003 43.6219C7.2447 45.2329 5.58975 47.658 4.40947 50.6434L3.80604 52.1697L4.96661 53.3303L6.46661 54.8303L8.40645 56.7701L10.1583 54.6589C11.3638 53.2061 12.1287 52.4965 12.5063 52.2503C12.8262 52.0417 13.1343 51.9531 13.4844 51.9531C14.2645 51.9531 15.1464 52.2792 16.1711 53.4203L16.1797 53.4299L16.1884 53.4393C17.1139 54.449 17.5938 55.6627 17.5938 57.2344C17.5938 59.1527 16.9813 61.0449 15.62 62.9558C14.2643 64.8591 11.2201 67.574 6.14531 71.1232L4.0362 72.5983L5.57197 74.6636L6.52204 75.9413L6.45488 75.976L8.26262 78.3448L9.622 80.1261L10.9286 81.8382L12.8152 80.7993C17.6199 78.1537 22.1105 76.2691 26.2915 75.1127L26.2994 75.1105L26.3073 75.1082C30.4657 73.9285 35.0147 73.3281 39.9688 73.3281C47.2698 73.3281 55.8008 74.6672 65.5918 77.4075L66.8783 77.7675L67.8926 76.8981C71.0409 74.1996 75.6129 70.9456 81.6619 67.1301L82.8618 66.3732L82.8274 64.9549C82.4532 49.5506 81.9993 39.4444 81.4521 34.7746C80.6792 28.108 79.0944 22.6291 76.5479 18.5129C74.0359 14.4523 70.722 11.3813 66.614 9.37919C62.5635 7.38984 57.7596 6.45312 52.2969 6.45312C50.5164 6.45312 46.1155 6.59652 39.1679 6.87691C27.6119 7.31534 20.8304 7.53125 18.7344 7.53125C15.4562 7.53125 13.5829 7.08509 12.6816 6.5593L12.6688 6.55184L12.6559 6.54454C12.1664 6.2667 11.6741 5.73969 11.3186 4.62869L10.7624 2.89062H8.9375H6.73438ZM35.5908 25.8145C35.9302 25.3352 36.4205 24.8013 37.0801 24.2156C37.0783 24.2229 37.0765 24.2302 37.0746 24.2374L37.0699 24.2565L37.0654 24.2757C36.5593 26.4446 36.3438 29.6064 36.3438 33.6094C36.3438 35.8783 36.3752 38.0713 36.4383 40.1881C36.5005 43.1783 36.5312 45.4193 36.5312 46.9219C36.5312 50.8472 35.8027 53.8716 34.5138 56.14L34.5092 56.1482C33.74 57.514 32.383 59.108 30.3485 60.9243C33.1407 57.0531 34.5469 52.6737 34.5469 47.8594V47.8312L34.5462 47.8031L34.1719 31.1916C34.1759 28.7977 34.7134 27.0666 35.5908 25.8145ZM45.0168 59.7033C43.7518 59.6869 42.2494 59.7683 40.5189 59.9412C41.0648 59.14 41.5222 58.3706 41.8842 57.634L41.8889 57.6245L41.8935 57.6149C43.2187 54.8599 43.9219 52.0694 43.9219 49.2656V49.2402L43.9214 49.2149L43.5469 30.7724C43.5494 29.0397 43.8213 27.1158 44.3955 24.9888C44.5679 24.3701 44.8189 23.6782 45.1562 22.9105V59.7058L45.0282 59.7035L45.0168 59.7033ZM59.7939 61.1062C57.8077 60.7151 55.3869 60.383 52.5469 60.1048V55.8955C53.9347 55.0053 55.119 54.4119 56.1092 54.0675C57.3863 53.6342 58.7969 53.4062 60.3594 53.4062C61.8899 53.4062 63.2446 53.634 64.4466 54.0597L64.4542 54.0624L64.4618 54.065C65.4668 54.4137 66.679 55.0179 68.1094 55.9261C68.1516 57.7529 68.1719 58.786 68.1719 59.0625C68.1719 59.0615 68.1719 59.0617 68.1719 59.0634C68.1718 59.067 68.1718 59.077 68.1716 59.0964L68.1706 59.2011L68.1662 59.5773C68.1623 59.9005 68.1565 60.3666 68.1486 60.9758C68.1412 61.5551 68.132 62.2635 68.1211 63.101C64.5614 62.1375 61.7763 61.4677 59.7939 61.1062ZM67.4368 43.005L67.7211 47.5374C67.0819 47.284 66.4671 47.0737 65.8779 46.9096C64.1581 46.4 62.3291 46.1562 60.4062 46.1562C58.4139 46.1562 56.5261 46.4174 54.7615 46.9661C54.0603 47.1718 53.3214 47.4432 52.5469 47.7752V43.1587C53.0435 43.3672 53.5449 43.5545 54.0513 43.72C55.9189 44.3306 57.8214 44.6406 59.75 44.6406C61.6806 44.6406 63.5077 44.3948 65.2123 43.8761L65.2284 43.8712L65.2445 43.866C65.944 43.6428 66.6753 43.3541 67.4368 43.005ZM62.3431 24.0634C64.393 25.733 66.0298 29.1691 66.7206 35.1089C65.4371 35.9052 64.3512 36.4529 63.4528 36.7873C62.3078 37.1825 61.0483 37.3906 59.6562 37.3906C58.2583 37.3906 56.9941 37.1808 55.8452 36.7823C54.9644 36.4681 53.8693 35.9084 52.5469 35.0499V20.9521C57.1294 21.2474 60.295 22.3743 62.3312 24.0537L62.3372 24.0586L62.3431 24.0634Z" stroke="white" stroke-width="5"/>
</svg>
